<?xml version="1.0" standalone="no"?>
<!DOCTYPE svg PUBLIC "-//W3C//DTD SVG 20010904//EN"
 "http://www.w3.org/TR/2001/REC-SVG-20010904/DTD/svg10.dtd">
<svg version="1.0" xmlns="http://www.w3.org/2000/svg"
 width="1080.000000pt" height="1080.000000pt" viewBox="0 0 1080.000000 1080.000000"
 preserveAspectRatio="xMidYMid meet">

<g transform="translate(0.000000,1080.000000) scale(0.100000,-0.100000)"
fill="#000000" stroke="none">
<path d="M8878 7761 c-48 -28 -244 -147 -436 -265 -566 -348 -874 -503 -1269
-637 -80 -27 -175 -62 -212 -78 -50 -21 -70 -26 -83 -17 -13 8 -28 2 -70 -27
-70 -48 -147 -122 -187 -181 -35 -51 -33 -81 3 -31 64 89 226 233 247 219 35
-22 -23 -194 -78 -230 -26 -16 -26 -18 -8 -25 33 -13 45 -10 38 7 -7 20 18 14
92 -24 31 -15 45 -19 37 -9 -7 8 -35 24 -62 36 -50 22 -50 22 -34 46 9 14 18
25 21 25 2 0 23 -10 46 -21 64 -33 113 -75 132 -115 l17 -36 56 7 c98 12 275
22 325 17 56 -5 65 -18 43 -60 -19 -37 -62 -69 -124 -92 -46 -18 -47 -17 -77
3 -16 11 0 -11 36 -49 248 -260 310 -590 178 -943 -46 -125 -157 -249 -317
-355 -99 -66 -276 -159 -324 -171 -15 -4 -32 -13 -38 -20 -6 -8 -17 -12 -23
-9 -9 3 -12 -47 -12 -200 l0 -204 45 5 c107 10 268 75 406 164 233 151 427
465 465 755 l12 92 99 4 c59 2 102 8 106 15 4 6 41 16 84 22 92 13 178 43 205
74 44 48 38 96 -15 115 -15 5 -76 18 -135 28 -59 10 -107 21 -107 25 0 4 24
10 53 14 77 11 173 42 249 82 80 42 188 148 188 186 0 34 -33 60 -75 59 -19
-1 -35 1 -35 3 0 3 23 16 50 30 52 26 57 34 39 52 -8 8 5 20 46 43 76 43 167
130 190 179 26 59 13 71 -83 71 l-76 0 57 34 c126 76 257 201 257 246 0 36
-24 42 -105 30 -42 -6 -79 -9 -82 -7 -2 3 18 17 46 33 51 27 60 37 41 49 -6 4
15 25 47 47 105 72 163 139 183 209 13 45 -2 69 -45 69 -28 0 -171 -40 -242
-67 -7 -3 45 53 116 123 136 137 180 199 161 234 -11 20 -24 24 -70 20 -24 -2
-25 -2 -7 18 12 13 15 22 8 27 -19 11 -12 21 27 38 48 21 105 77 128 126 11
22 20 67 22 114 4 71 2 81 -19 103 -12 13 -32 24 -44 24 -11 0 -60 -22 -107
-49z m130 7 c14 -14 16 -80 2 -128 -28 -100 -120 -183 -203 -183 -35 0 -39 -2
-24 -11 50 -30 52 -33 37 -51 -29 -35 -337 -231 -468 -298 l-133 -69 -94 23
c-53 13 -91 27 -87 31 4 4 23 3 42 -2 50 -14 73 -10 26 4 -61 19 -27 27 38 10
32 -8 60 -13 63 -11 2 3 -19 10 -46 17 -28 7 -51 16 -51 22 0 5 8 7 18 4 9 -3
31 -8 47 -11 29 -5 28 -5 -4 8 l-34 13 149 86 c82 48 158 94 169 103 23 20
-10 1 -190 -103 -169 -98 -388 -212 -494 -257 -79 -33 -93 -36 -214 -41 -72
-2 -135 -7 -141 -10 -6 -3 -2 2 8 10 11 9 23 16 27 16 17 0 361 165 501 241
83 44 280 160 437 257 573 352 589 360 619 330z m-98 -435 c0 -5 -10 -24 -21
-43 -113 -186 -474 -448 -750 -545 l-75 -26 -53 32 c-60 38 -50 53 13 19 37
-19 25 -2 -14 20 -8 5 -12 11 -9 15 4 3 22 -3 40 -14 45 -28 63 -27 20 1 -41
26 -26 36 21 13 l33 -16 -25 20 -25 20 30 11 c62 23 236 103 240 110 3 4 -50
-17 -118 -47 -153 -69 -318 -124 -467 -157 -158 -34 -210 -41 -210 -27 0 6 6
11 13 11 8 0 39 17 69 39 41 28 86 47 168 70 260 73 577 220 835 386 97 63
114 72 179 95 53 19 106 25 106 13z m-805 -289 c39 -9 75 -21 80 -27 7 -7 5
-8 -5 -5 -8 3 -52 13 -97 23 -46 10 -83 22 -83 27 0 5 8 7 18 4 9 -3 49 -13
87 -22z m-22 -21 c43 -9 74 -20 70 -24 -11 -10 -193 32 -193 44 0 5 10 7 23 3
12 -3 57 -13 100 -23z m19 -45 c-4 -4 -23 -4 -42 1 -19 5 -62 15 -94 21 -33 7
-54 15 -47 19 15 10 194 -30 183 -41z m818 34 c0 -27 -51 -102 -101 -147 -24
-22 -80 -63 -124 -90 -75 -47 -78 -50 -51 -55 25 -4 15 -12 -86 -61 -113 -57
-308 -132 -424 -164 l-61 -17 -47 34 c-32 22 -43 34 -32 36 9 2 29 -6 45 -17
39 -28 53 -27 18 2 l-29 22 54 19 c162 57 298 109 295 112 -2 3 -44 -11 -93
-29 -114 -44 -312 -101 -439 -128 -111 -23 -348 -59 -353 -54 -2 2 11 11 28
20 18 9 51 34 74 54 35 32 53 40 116 51 274 47 540 139 705 245 59 37 219 105
360 151 116 39 145 42 145 16z m-925 -32 c39 -10 60 -18 48 -19 -24 -1 -164
27 -172 34 -10 11 58 2 124 -15z m-61 -15 c82 -16 108 -25 65 -24 -36 0 -168
25 -176 33 -10 10 26 7 111 -9z m-55 -20 c87 -15 101 -20 79 -27 -20 -6 -191
26 -182 35 9 9 5 9 103 -8z m-35 -26 c47 -8 64 -14 54 -20 -9 -5 -50 -2 -99 6
-46 8 -86 15 -89 15 -3 0 2 5 10 10 8 6 24 8 35 6 11 -3 51 -10 89 -17z m-51
-25 c27 -3 45 -10 40 -14 -10 -10 -123 10 -123 22 0 5 8 7 18 4 9 -3 39 -8 65
-12z m-105 -15 c8 -41 -114 -115 -278 -167 -110 -35 -206 -56 -340 -74 -75
-10 -88 -13 -60 -18 43 -6 51 -36 18 -67 l-23 -21 -62 35 c-60 33 -62 35 -51
61 7 15 16 32 21 39 13 18 156 63 281 88 61 13 101 24 90 24 -37 2 -215 -37
-293 -64 -41 -14 -75 -25 -77 -25 -1 0 -4 9 -7 20 -7 26 37 47 251 120 160 56
241 68 417 66 91 -1 110 -4 113 -17z m77 -9 c18 -8 18 -9 -5 -9 -14 0 -32 4
-40 9 -12 8 -12 10 5 9 11 0 29 -4 40 -9z m228 -122 c28 -18 45 -34 39 -36
-12 -4 -98 43 -108 59 -11 19 21 8 69 -23z m-42 -12 c28 -19 46 -36 41 -39 -8
-6 -112 58 -112 68 0 12 25 2 71 -29z m-49 -7 c41 -27 61 -49 43 -49 -10 0
-105 65 -105 73 0 12 12 8 62 -24z m-42 -10 c27 -17 50 -35 50 -41 0 -5 -17 1
-37 13 -21 13 -46 28 -55 33 -17 10 -25 26 -13 26 3 0 27 -14 55 -31z m-32
-14 c48 -28 65 -45 43 -45 -19 0 -120 64 -115 72 7 11 4 11 72 -27z m-47 -12
c46 -26 61 -43 40 -43 -6 0 -36 16 -68 35 -69 41 -44 48 28 8z m-110 -14 c34
-17 63 -28 66 -25 3 2 -17 16 -44 30 -27 14 -40 25 -29 26 21 0 116 -51 116
-63 0 -5 -9 -6 -19 -2 -11 3 -22 1 -26 -4 -6 -11 -135 47 -135 61 0 12 6 10
71 -23z m-141 10 c91 -21 104 -65 36 -127 -80 -74 -165 -105 -331 -121 -150
-15 -150 -15 -166 17 -7 15 -15 30 -17 34 -5 10 96 40 203 59 55 9 88 18 74
18 -44 2 -196 -28 -249 -48 -50 -19 -64 -15 -33 10 9 8 22 28 29 45 12 28 18
32 71 38 63 7 224 46 288 69 51 19 43 18 95 6z m140 -44 c14 -8 20 -14 13 -15
-6 0 -18 -3 -26 -6 -9 -3 -16 3 -20 15 -6 24 -1 25 33 6z m1072 -73 c-123
-146 -337 -253 -674 -337 l-107 -26 -56 38 c-63 41 -57 58 9 23 l41 -22 -30
26 c-38 32 -13 35 42 5 l38 -22 -30 26 c-36 32 -20 35 32 6 l38 -21 -29 25
-29 25 37 7 c20 4 35 10 32 12 -2 3 -47 -4 -98 -16 -208 -45 -538 -94 -538
-79 0 4 3 8 8 8 4 0 30 20 57 44 42 36 60 45 105 51 191 25 511 105 745 185
169 59 435 117 444 97 2 -5 -15 -29 -37 -55z m-734 -63 c23 -17 42 -33 42 -35
0 -13 -31 1 -69 31 -54 43 -31 47 27 4z m-39 -11 l42 -33 -29 -6 c-16 -3 -33
-8 -38 -11 -5 -3 -29 12 -54 33 -37 32 -41 39 -24 39 11 0 29 -9 40 -21 10
-11 28 -26 39 -31 12 -7 7 3 -14 26 -44 46 -21 48 38 4z m-94 -21 c21 -19 34
-36 29 -40 -6 -3 -30 12 -55 33 -27 24 -38 39 -28 40 9 0 33 -15 54 -33z m-40
-12 c24 -21 34 -35 25 -35 -9 0 -31 13 -50 30 -19 16 -39 29 -45 29 -5 0 8
-15 30 -34 52 -45 21 -49 -35 -5 -52 41 -64 37 -15 -5 32 -28 36 -35 20 -35
-20 0 -117 69 -99 71 39 3 89 11 93 15 12 11 40 0 76 -31z m-152 -22 c27 -20
45 -39 38 -41 -13 -4 -110 58 -111 71 0 16 24 5 73 -30z m-51 -5 c46 -32 59
-48 38 -48 -10 0 -110 69 -110 76 0 12 29 0 72 -28z m-47 -10 c41 -29 56 -48
38 -48 -5 0 -35 18 -68 40 -45 30 -54 40 -38 40 12 0 43 -14 68 -32z m-16 -32
c9 -11 7 -15 -9 -19 -15 -4 -20 0 -20 14 0 22 13 25 29 5z m1071 -90 c0 -22
-104 -130 -161 -166 -27 -18 -75 -43 -107 -56 -41 -17 -50 -24 -32 -24 14 0
32 -5 40 -10 11 -7 -1 -16 -53 -40 -121 -55 -337 -99 -557 -114 l-85 -5 -54
49 c-30 27 -51 53 -47 57 8 8 13 5 78 -46 l43 -35 -40 42 c-42 45 -31 56 19
19 49 -37 64 -42 26 -8 -38 33 -23 44 20 14 25 -16 25 -16 8 3 -17 20 -16 20
105 38 125 18 241 42 147 30 -25 -3 -110 -14 -190 -25 -80 -10 -170 -19 -200
-19 -55 0 -55 0 -96 54 l-42 53 117 6 c209 11 554 81 705 143 62 26 208 51
304 53 39 1 52 -3 52 -13z m-753 -63 c39 -25 52 -38 41 -41 -14 -3 -128 63
-128 74 0 13 38 -1 87 -33z m-57 -5 c48 -32 61 -48 40 -48 -10 0 -120 70 -120
76 0 13 37 -1 80 -28z m-92 -21 c24 -16 45 -27 48 -24 2 2 -15 17 -38 32 -24
16 -37 30 -30 33 15 5 112 -56 112 -70 0 -6 -7 -7 -16 -4 -8 3 -23 2 -33 -4
-14 -7 -30 -1 -69 27 -29 19 -49 40 -46 44 6 10 10 8 72 -34z m-58 -4 c38 -26
50 -38 38 -41 -17 -3 -117 57 -118 71 0 16 28 5 80 -30z m-50 -10 c30 -20 49
-38 43 -40 -14 -5 -123 57 -123 69 0 17 27 7 80 -29z m-122 -5 c59 -40 56 -37
49 -44 -8 -8 -117 58 -111 68 8 12 12 11 62 -24z m64 0 c36 -22 47 -34 36 -36
-9 -2 -41 13 -70 32 -66 45 -37 48 34 4z m-111 -10 c45 -28 49 -33 30 -36 -15
-2 -28 4 -38 18 -9 12 -30 28 -47 36 -17 7 -23 13 -14 14 9 0 40 -15 69 -32z
m-30 -25 c13 -16 12 -17 -3 -4 -10 7 -18 15 -18 17 0 8 8 3 21 -13z m219 -258
c10 -12 10 -15 -1 -15 -19 1 -51 29 -75 65 l-19 30 41 -32 c22 -18 47 -39 54
-48z m763 28 c10 -17 -15 -56 -65 -105 -106 -103 -285 -162 -535 -176 l-122
-7 -6 33 c-3 18 -8 39 -11 46 -4 10 21 16 93 24 l98 10 -100 -4 -101 -4 -17
47 c-9 25 -15 48 -12 51 3 3 56 9 118 14 61 4 216 23 342 42 234 35 310 42
318 29z m-395 -353 c96 -16 178 -33 183 -36 18 -11 8 -43 -21 -67 -51 -43
-123 -62 -242 -62 -93 0 -104 -2 -82 -13 13 -7 24 -15 24 -17 0 -3 -36 -5 -80
-5 l-80 0 0 50 0 50 73 -5 c80 -5 72 0 -15 10 -57 6 -57 7 -63 43 -3 20 -8 47
-11 60 -4 21 -2 22 68 22 40 0 151 -14 246 -30z"/>
<path d="M8494 7354 c-18 -14 -18 -15 4 -4 12 6 22 13 22 15 0 8 -5 6 -26 -11z"/>
<path d="M8158 7063 c7 -3 16 -2 19 1 4 3 -2 6 -13 5 -11 0 -14 -3 -6 -6z"/>
<path d="M8060 6555 c0 -2 10 -10 23 -16 20 -11 21 -11 8 4 -13 16 -31 23 -31
12z"/>
<path d="M7323 6783 c9 -2 23 -2 30 0 6 3 -1 5 -18 5 -16 0 -22 -2 -12 -5z"/>
<path d="M7383 6573 c9 -2 25 -2 35 0 9 3 1 5 -18 5 -19 0 -27 -2 -17 -5z"/>
<path d="M8118 6353 c7 -3 16 -2 19 1 4 3 -2 6 -13 5 -11 0 -14 -3 -6 -6z"/>
<path d="M8078 6343 c7 -3 16 -2 19 1 4 3 -2 6 -13 5 -11 0 -14 -3 -6 -6z"/>
<path d="M8098 6073 c7 -3 16 -2 19 1 4 3 -2 6 -13 5 -11 0 -14 -3 -6 -6z"/>
<path d="M8048 6063 c6 -2 18 -2 25 0 6 3 1 5 -13 5 -14 0 -19 -2 -12 -5z"/>
<path d="M7968 5773 c7 -3 16 -2 19 1 4 3 -2 6 -13 5 -11 0 -14 -3 -6 -6z"/>
<path d="M7888 5763 c12 -2 30 -2 40 0 9 3 -1 5 -23 4 -22 0 -30 -2 -17 -4z"/>
<path d="M1759 7764 c-19 -20 -24 -36 -23 -77 1 -114 52 -203 142 -247 40 -20
51 -29 47 -44 -2 -11 1 -26 7 -33 8 -10 3 -13 -25 -13 -43 0 -70 -24 -61 -54
16 -52 125 -180 223 -263 38 -32 68 -59 66 -61 -2 -2 -46 10 -97 26 -132 44
-164 48 -188 27 -49 -44 42 -179 184 -275 28 -19 45 -35 38 -38 -23 -7 -12
-21 44 -52 30 -18 54 -34 52 -35 -2 -2 -23 1 -48 5 -76 15 -140 12 -147 -6
-16 -43 109 -177 233 -249 36 -21 66 -41 68 -44 2 -3 -30 -6 -71 -6 -61 0 -78
-3 -87 -17 -23 -37 65 -144 181 -220 42 -28 58 -45 58 -61 0 -16 13 -29 50
-49 l50 -28 -41 0 c-45 0 -74 -22 -74 -57 0 -52 113 -158 221 -208 63 -28 198
-65 241 -65 64 0 20 -19 -94 -40 -173 -32 -206 -67 -130 -139 43 -41 115 -67
214 -77 42 -4 69 -12 72 -20 4 -11 31 -14 111 -14 l105 0 0 -37 c0 -61 35
-211 69 -298 82 -212 315 -472 520 -579 88 -45 220 -86 304 -93 l68 -6 -1 194
c-1 106 2 195 7 196 4 2 8 -86 7 -194 l0 -198 5 189 6 189 185 2 c166 1 195 4
282 27 271 74 562 245 882 520 167 143 657 619 649 631 -3 6 -1 7 4 4 20 -13
28 18 22 88 -3 39 -6 55 -7 38 -3 -48 -22 -40 -22 8 0 23 7 47 16 56 9 9 13
25 10 37 -12 49 -27 210 -22 232 10 38 -11 30 -109 -43 -106 -79 -312 -283
-445 -438 -52 -60 -108 -125 -126 -143 -18 -18 -81 -96 -141 -174 -185 -241
-302 -378 -453 -530 -161 -163 -234 -215 -354 -255 -76 -26 -92 -28 -256 -27
-153 0 -184 3 -250 23 -250 76 -413 174 -495 297 -44 66 -116 216 -143 299
-101 302 -56 619 117 833 l51 62 -26 10 c-14 6 -29 10 -33 10 -21 0 -93 64
-108 96 -15 31 -15 36 -3 44 20 13 196 12 303 -1 101 -12 133 -7 142 21 9 30
59 75 119 109 29 17 56 31 59 31 2 0 12 -11 21 -25 16 -24 16 -25 -34 -50 -67
-34 -64 -41 4 -11 36 16 57 21 64 14 6 -6 15 -7 21 -4 7 5 0 20 -19 44 -48 60
-75 163 -52 199 15 23 173 -110 239 -202 12 -16 24 -27 28 -23 20 19 -109 159
-209 228 -40 27 -52 31 -67 22 -14 -9 -30 -6 -73 13 -30 13 -135 52 -233 86
-214 74 -348 131 -593 254 -238 119 -303 157 -725 417 -474 292 -478 293 -526
242z m156 -45 c50 -29 230 -138 400 -242 171 -105 353 -215 405 -245 119 -68
458 -237 565 -282 44 -19 83 -37 87 -40 4 -3 -52 -4 -125 -2 -153 5 -174 11
-418 136 -124 63 -438 239 -506 284 -13 8 -23 12 -23 9 0 -6 219 -139 308
-188 l44 -24 -29 -13 c-26 -12 -26 -12 17 -6 54 8 49 -1 -11 -21 -24 -8 -33
-13 -19 -10 75 13 114 16 100 7 -8 -5 -32 -13 -54 -16 -21 -4 -36 -10 -33 -13
3 -2 30 1 60 7 30 7 61 10 68 8 8 -3 -30 -15 -84 -28 l-98 -24 -77 38 c-112
55 -250 138 -382 227 -171 117 -160 106 -127 135 21 18 24 24 11 24 -78 0
-178 79 -207 165 -29 84 -18 165 21 165 10 0 58 -23 107 -51z m100 -425 c38
-15 112 -55 164 -89 252 -165 571 -311 831 -381 60 -17 116 -40 151 -63 31
-20 65 -41 75 -48 18 -11 17 -12 -7 -12 -115 -3 -511 114 -679 199 -23 12 -44
19 -46 17 -4 -4 138 -72 189 -90 27 -9 28 -10 10 -30 -18 -20 -18 -20 14 -3
20 10 34 12 38 6 3 -6 2 -10 -2 -10 -5 0 -18 -7 -29 -15 -16 -14 -14 -14 14 0
48 23 62 13 19 -14 -53 -32 -46 -37 8 -6 64 38 78 25 16 -15 l-53 -33 -70 22
c-143 46 -362 172 -519 299 -123 99 -259 253 -259 293 0 17 54 6 135 -27z
m775 -248 c0 -7 -182 -48 -187 -42 -3 2 12 9 33 15 98 26 154 36 154 27z m38
-22 c-9 -9 -181 -45 -186 -39 -8 8 -2 10 68 27 67 16 128 22 118 12z m-832
-35 c152 -48 311 -116 388 -164 153 -95 369 -172 629 -225 139 -29 155 -34
187 -65 19 -18 51 -42 70 -54 44 -26 38 -26 -151 4 -187 29 -351 69 -525 129
-175 59 -174 59 -129 37 22 -11 91 -37 154 -58 112 -37 113 -37 91 -55 -26
-21 -14 -24 14 -3 32 24 41 17 15 -12 -24 -26 -10 -23 23 4 9 8 25 13 35 11
14 -3 7 -11 -29 -36 -26 -17 -53 -32 -60 -32 -51 0 -354 113 -498 185 -91 46
-110 61 -65 53 35 -7 31 8 -7 28 -136 70 -268 202 -268 269 0 21 17 19 126
-16z m881 15 c-6 -6 -163 -43 -184 -44 -7 0 -13 4 -13 8 0 4 33 15 73 24 76
16 134 22 124 12z m38 -23 c-6 -4 -39 -14 -75 -20 -36 -7 -75 -15 -87 -18 -13
-3 -23 -1 -23 4 0 5 33 16 73 25 85 18 125 21 112 9z m49 -18 c9 -9 -175 -43
-189 -35 -5 4 26 14 70 23 95 20 109 21 119 12z m54 -28 c-11 -10 -182 -35
-190 -27 -10 10 157 41 180 34 7 -3 12 -6 10 -7z m52 -23 c0 -4 -38 -14 -85
-21 -101 -15 -142 -2 -45 15 80 14 130 17 130 6z m-35 -38 c-59 -16 -93 -18
-79 -5 10 10 50 18 99 19 23 0 18 -3 -20 -14z m313 5 c117 -9 150 -16 275 -59
211 -72 257 -94 257 -123 l0 -25 -67 25 c-77 28 -226 63 -263 62 -14 -1 16
-10 65 -20 101 -22 234 -63 258 -82 9 -7 20 -27 23 -44 5 -26 3 -34 -12 -40
-11 -3 -36 -17 -56 -30 -39 -24 -62 -22 -78 8 -18 33 -12 49 19 49 17 0 33 5
36 10 4 6 -8 10 -28 10 -67 0 -273 41 -387 76 -168 53 -271 109 -285 155 -14
42 21 46 243 28z m-268 -14 c0 -10 -52 -25 -63 -18 -7 4 -2 10 13 14 32 9 50
10 50 4z m-210 -102 c-1 -13 -111 -76 -118 -68 -4 3 0 10 8 15 8 5 31 20 50
34 35 25 60 33 60 19z m-9 -49 c-49 -33 -71 -42 -71 -26 1 11 104 71 113 65 5
-3 -14 -20 -42 -39z m89 22 c0 -9 -103 -67 -112 -64 -12 4 81 68 100 68 6 0
12 -2 12 -4z m40 -10 c0 -8 -104 -66 -113 -63 -12 4 82 67 101 67 6 0 12 -2
12 -4z m50 -10 c0 -10 -111 -67 -122 -64 -14 5 81 66 105 67 9 1 17 -1 17 -3z
m50 -10 c0 -6 -108 -66 -120 -66 -22 0 -7 16 38 41 42 24 82 36 82 25z m50
-11 c0 -9 -122 -66 -133 -62 -14 4 91 64 116 66 9 0 17 -1 17 -4z m-9 -41
c-34 -19 -68 -33 -74 -31 -15 5 92 64 118 66 11 0 -9 -15 -44 -35z m271 1 c42
-13 129 -34 192 -46 76 -14 116 -26 116 -35 0 -7 12 -27 26 -44 15 -17 25 -33
22 -35 -2 -3 -26 4 -54 14 -55 21 -221 52 -268 50 -27 -2 -28 -2 -6 -6 14 -2
66 -11 115 -19 74 -12 181 -39 193 -49 2 -1 -7 -19 -19 -39 -18 -31 -26 -36
-48 -32 -14 3 -73 10 -131 15 -123 12 -205 37 -277 87 -91 63 -107 115 -43
146 47 24 91 22 182 -7z m-249 -25 c-3 -13 -14 -20 -29 -20 -30 0 -31 14 -1
28 32 15 36 14 30 -8z m-913 -50 c69 -15 188 -51 265 -78 168 -59 417 -123
612 -156 l142 -24 55 -48 c31 -26 56 -49 56 -51 0 -4 -20 -1 -220 28 -80 11
-198 32 -264 45 -65 14 -121 23 -124 20 -3 -3 4 -6 16 -6 27 0 29 -16 3 -25
-11 -3 -25 -13 -33 -22 -7 -10 7 -5 35 11 26 16 51 25 55 21 4 -4 1 -10 -5
-12 -7 -3 -23 -13 -35 -24 -16 -14 -7 -11 29 8 29 16 55 24 60 19 4 -5 2 -11
-4 -13 -7 -3 -23 -14 -35 -25 -18 -15 -12 -14 24 6 86 48 95 28 11 -23 l-56
-34 -76 18 c-234 55 -420 126 -543 208 -82 54 -198 164 -198 187 0 16 69 7
230 -30z m575 -85 c-22 -19 -35 -34 -30 -34 6 0 26 13 45 29 33 29 60 39 60
23 0 -5 -18 -22 -39 -40 -36 -30 -40 -31 -75 -19 l-36 12 42 32 c58 42 83 40
33 -3z m85 -25 c-25 -22 -48 -40 -52 -40 -18 0 -5 21 29 49 56 46 76 37 23 -9z
m80 24 c0 -6 -55 -54 -77 -67 -33 -20 -25 7 12 38 36 31 65 44 65 29z m40 -10
c0 -3 -14 -17 -30 -31 -45 -38 -28 -40 18 -3 22 17 48 30 57 28 11 -2 1 -14
-35 -41 -39 -29 -55 -36 -64 -28 -8 6 -21 9 -30 5 -28 -11 -16 10 26 44 38 30
58 39 58 26z m90 -35 c-59 -47 -77 -57 -88 -50 -16 9 65 70 93 70 18 1 18 -1
-5 -20z m65 3 c-42 -36 -88 -63 -101 -60 -21 4 63 67 91 68 11 0 15 -4 10 -8z
m55 1 c0 -12 -100 -75 -112 -71 -6 2 11 20 38 41 47 35 74 46 74 30z m60 -7
c0 -6 -110 -76 -120 -76 -21 0 -8 16 38 47 40 28 82 43 82 29z m-40 -66 c0
-13 -7 -20 -20 -20 -25 0 -26 16 -2 29 23 14 22 14 22 -9z m2797 -62 c-3 -8
-6 -5 -6 6 -1 11 2 17 5 13 3 -3 4 -12 1 -19z m-3730 -23 c71 -9 144 -26 183
-41 155 -62 468 -126 694 -143 70 -6 130 -12 132 -14 2 -2 -13 -27 -34 -55
l-37 -52 -75 6 c-41 3 -142 14 -224 25 -81 11 -150 18 -153 16 -5 -5 195 -37
231 -37 31 0 32 -6 9 -34 -17 -18 -15 -18 14 2 46 32 61 27 27 -10 l-29 -32
41 32 c38 29 64 40 64 27 0 -3 -17 -21 -37 -41 -34 -33 -35 -34 -7 -15 17 11
37 27 44 36 7 8 22 15 34 15 17 -1 11 -10 -34 -51 l-55 -50 -100 6 c-166 10
-342 41 -464 82 -73 24 -141 55 -141 63 0 4 17 11 37 15 l37 7 -53 18 c-72 24
-186 104 -232 163 -67 84 -62 86 128 62z m673 -30 c0 -12 -110 -76 -126 -73
-12 2 1 15 42 40 54 34 84 46 84 33z m50 -10 c0 -2 -25 -21 -56 -40 -74 -47
-103 -42 -32 6 47 32 88 48 88 34z m49 -9 c-24 -24 -114 -77 -126 -74 -21 4
84 76 111 77 11 1 17 -1 15 -3z m75 -15 l29 -6 -57 -38 c-36 -24 -62 -35 -68
-29 -5 5 7 19 33 36 22 15 38 30 35 33 -3 3 -28 -11 -56 -31 -29 -21 -59 -36
-68 -34 -12 3 0 15 38 41 56 38 63 39 114 28z m70 -10 c7 -11 -93 -73 -112
-69 -9 2 6 18 39 40 58 40 65 42 73 29z m66 -5 c0 -6 -110 -76 -120 -76 -21 0
-8 16 38 47 40 27 82 42 82 29z m50 -10 c0 -8 -104 -66 -113 -63 -15 5 73 66
96 67 9 0 17 -2 17 -4z m27 -17 c-21 -11 -41 -27 -44 -34 -3 -8 -17 -15 -31
-15 -24 0 -22 3 23 34 28 19 59 35 70 35 14 0 8 -6 -18 -20z m-2 -39 c-10 -11
-21 -17 -24 -14 -3 3 3 12 13 20 28 20 32 17 11 -6z m-149 -205 c-15 -19 -24
-35 -21 -35 3 0 1 -9 -5 -21 -7 -11 -14 -18 -17 -15 -3 3 0 13 8 23 13 17 13
17 -13 0 -53 -34 -52 -16 2 33 65 58 83 64 46 15z m-594 -46 c283 -41 326 -46
441 -54 53 -4 97 -8 97 -9 0 -2 -7 -24 -16 -51 l-17 -48 -121 6 c-80 3 -101 2
-61 -3 33 -4 86 -8 118 -9 31 -1 57 -4 57 -7 0 -3 -5 -25 -11 -50 -13 -51 -7
-50 -184 -34 -152 15 -274 43 -360 84 -138 67 -256 206 -175 206 11 0 115 -14
232 -31z m464 -321 c-3 -13 -9 -66 -13 -119 l-6 -95 -45 -3 c-25 -1 -64 1 -86
5 l-40 6 27 15 c15 7 27 15 27 16 0 1 -51 2 -112 2 -130 0 -198 18 -242 64
-53 55 -41 62 154 97 96 17 213 32 259 33 82 1 83 1 77 -21z m931 -864 c-3 -3
-12 -4 -19 -1 -8 3 -5 6 6 6 11 1 17 -2 13 -5z"/>
<path d="M2250 7366 c0 -3 9 -10 20 -16 11 -6 20 -8 20 -6 0 3 -9 10 -20 16
-11 6 -20 8 -20 6z"/>
<path d="M2390 6680 c8 -5 20 -10 25 -10 6 0 3 5 -5 10 -8 5 -19 10 -25 10 -5
0 -3 -5 5 -10z"/>
<path d="M3418 6773 c6 -2 18 -2 25 0 6 3 1 5 -13 5 -14 0 -19 -2 -12 -5z"/>
<path d="M3473 6763 c9 -2 25 -2 35 0 9 3 1 5 -18 5 -19 0 -27 -2 -17 -5z"/>
<path d="M3348 6563 c7 -3 16 -2 19 1 4 3 -2 6 -13 5 -11 0 -14 -3 -6 -6z"/>
<path d="M2688 6333 c7 -3 16 -2 19 1 4 3 -2 6 -13 5 -11 0 -14 -3 -6 -6z"/>
<path d="M2728 6323 c7 -3 16 -2 19 1 4 3 -2 6 -13 5 -11 0 -14 -3 -6 -6z"/>
<path d="M2658 6063 c7 -3 16 -2 19 1 4 3 -2 6 -13 5 -11 0 -14 -3 -6 -6z"/>
<path d="M2720 6050 c14 -4 36 -8 50 -8 22 0 22 1 -5 8 -16 4 -39 8 -50 8 -16
0 -15 -2 5 -8z"/>
<path d="M2843 5753 c9 -2 25 -2 35 0 9 3 1 5 -18 5 -19 0 -27 -2 -17 -5z"/>
<path d="M2967 5463 c18 -2 50 -2 70 0 21 2 7 4 -32 4 -38 0 -55 -2 -38 -4z"/>
<path d="M7217 6343 c18 -2 50 -2 70 0 21 2 7 4 -32 4 -38 0 -55 -2 -38 -4z"/>
<path d="M3543 6323 c9 -2 23 -2 30 0 6 3 -1 5 -18 5 -16 0 -22 -2 -12 -5z"/>
<path d="M6081 6244 c0 -11 3 -14 6 -6 3 7 2 16 -1 19 -3 4 -6 -2 -5 -13z"/>
<path d="M6575 6082 c-71 -6 -165 -24 -230 -45 -120 -37 -185 -127 -201 -279
-12 -118 39 -253 130 -342 165 -164 430 -162 596 4 160 160 168 414 20 583
-34 39 -49 47 -107 61 -67 16 -149 24 -208 18z m281 -196 c37 -37 45 -82 22
-131 -22 -49 -96 -69 -153 -43 -52 23 -71 103 -38 158 20 35 47 48 97 49 30 1
45 -6 72 -33z m-138 -278 c7 -7 12 -24 12 -38 0 -14 -5 -31 -12 -38 -7 -7 -24
-12 -38 -12 -14 0 -31 5 -38 12 -7 7 -12 24 -12 38 0 14 5 31 12 38 7 7 24 12
38 12 14 0 31 -5 38 -12z"/>
<path d="M4020 6065 c-100 -25 -145 -50 -181 -101 -118 -172 -98 -394 51 -544
244 -246 660 -111 721 234 25 144 -43 326 -140 375 -91 47 -329 66 -451 36z
m476 -179 c37 -37 45 -82 22 -131 -22 -49 -96 -69 -153 -43 -52 23 -71 103
-38 158 20 35 47 48 97 49 30 1 45 -6 72 -33z m-138 -278 c7 -7 12 -24 12 -38
0 -14 -5 -31 -12 -38 -7 -7 -24 -12 -38 -12 -14 0 -31 5 -38 12 -7 7 -12 24
-12 38 0 14 5 31 12 38 7 7 24 12 38 12 14 0 31 -5 38 -12z"/>
<path d="M5710 5150 c0 -104 -4 -180 -9 -180 -5 0 -12 8 -14 18 -4 14 -5 14
-6 -3 -2 -39 256 -184 424 -238 132 -43 224 -57 357 -56 166 2 212 13 93 22
-128 11 -233 41 -313 92 -79 51 -224 184 -337 308 -44 49 -98 108 -120 130
-22 23 -40 44 -41 47 -4 19 -18 40 -25 40 -5 0 -9 -81 -9 -180z m47 -143 c-1
-45 -3 -5 -3 88 0 94 2 130 3 82 2 -48 2 -125 0 -170z"/>
<path d="M6750 4520 c0 -127 4 -200 10 -200 6 0 10 73 10 200 0 127 -4 200
-10 200 -6 0 -10 -73 -10 -200z"/>
</g>
</svg>
